<svg xmlns="http://www.w3.org/2000/svg" xmlns:xlink="http://www.w3.org/1999/xlink" fill="none" version="1.1" width="23" height="29.3489990234375" viewBox="0 0 23 29.3489990234375"><defs><linearGradient x1="0.9190009832382202" y1="0.285610556602478" x2="0.051267318427562714" y2="0.6745179891586304" id="master_svg0_40_03742"><stop offset="0%" stop-color="#000000" stop-opacity="1"/><stop offset="36.000001430511475%" stop-color="#6F6F6F" stop-opacity="1"/><stop offset="67.00000166893005%" stop-color="#DFDFDF" stop-opacity="1"/><stop offset="100%" stop-color="#F1F1F1" stop-opacity="1"/></linearGradient><linearGradient x1="0.10513816773891449" y1="0.6800479292869568" x2="1.1104649305343628" y2="0.3305398225784302" id="master_svg1_40_03410"><stop offset="0%" stop-color="#000000" stop-opacity="1"/><stop offset="37.00000047683716%" stop-color="#4A4A4A" stop-opacity="1"/><stop offset="67.00000166893005%" stop-color="#DCDCDC" stop-opacity="1"/><stop offset="100%" stop-color="#F1F1F1" stop-opacity="1"/></linearGradient><radialGradient cx="0" cy="0" r="1" gradientUnits="userSpaceOnUse" id="master_svg2_40_03072" gradientTransform="translate(10.530207666425042 9.110428432675462) rotate(0) scale(2.2120064370628256 2.2120064370628256)"><stop offset="0%" stop-color="#F1F1F1" stop-opacity="1"/><stop offset="33.000001311302185%" stop-color="#E7E7E7" stop-opacity="1"/><stop offset="63.999998569488525%" stop-color="#7C7C7C" stop-opacity="1"/><stop offset="100%" stop-color="#070100" stop-opacity="1"/></radialGradient></defs><g><g><g><path d="M16.221629689598082,2.64023L22.244629689598085,8.60406C22.756929689598085,9.11043,23.008629689598084,9.62271,22.999729689598084,10.1409C22.990929689598083,10.6562,22.771729689598082,11.13,22.339429689598084,11.5564C21.889329689598082,12.0035,21.403729689598084,12.2315,20.882529689598083,12.2404C20.361329689598083,12.2493,19.846129689598083,11.9976,19.330829689598083,11.4912L13.171629689598083,5.39118C12.472729689598083,4.69826,11.797629689598084,4.2067,11.146139689598083,3.91947C10.497639689598083,3.63223,9.813599689598083,3.58781,9.096999689598084,3.78325C8.380389689598083,3.97869,7.610479689598083,4.48505,6.787269689598084,5.30234C5.6501696895980835,6.42759,5.108279689598083,7.48474,5.164539689598083,8.47377C5.220799689598083,9.46281,5.7834296895980835,10.4844,6.855379689598084,11.5475L13.065029689598083,17.6979C13.583229689598083,18.2102,13.837829689598083,18.7224,13.828929689598084,19.2318C13.820129689598083,19.7411,13.598029689598084,20.2149,13.159729689598084,20.6472C12.721529689598084,21.0795,12.241729689598083,21.3076,11.714729689598084,21.3253C11.190559689598084,21.3431,10.669389689598084,21.0944,10.151179689598084,20.5821L4.134039689598083,14.6182C3.1538896895980835,13.647,2.4461676895980835,12.729,2.0108736895980837,11.8643C1.5755785895980834,10.9997,1.4127133895980835,10.0195,1.5252384895980835,8.92683C1.6259186895980835,7.9911,1.9279596895980835,7.08498,2.4254396895980834,6.2055C2.9258796895980836,5.32603,3.6395296895980835,4.42879,4.566379689598083,3.50786C5.670899689598084,2.41222,6.7250796895980836,1.57421,7.731889689598083,0.990853C8.738689689598083,0.407499,9.709959689598083,0.0817684,10.648659689598084,0.0136611C11.587329689598084,-0.0544463,12.514229689598084,0.132109,13.432129689598083,0.573325C14.347229689598084,1.01454,15.277029689598084,1.70154,16.224529689598086,2.64023L16.221629689598082,2.64023Z" fill="url(#master_svg0_40_03742)" fill-opacity="1"/></g><g><path d="M6.77838,26.70874842071533L0.75533,20.744928420715333C0.243044,20.238568420715332,-0.0086565,19.72628842071533,0.000227059,19.20807842071533C0.00911062,18.68986842071533,0.228238,18.219038420715332,0.660572,17.79262842071533C1.11067,17.345488420715334,1.59631,17.117478420715333,2.11748,17.10859842071533C2.63865,17.09970842071533,3.15389,17.348448420715332,3.66914,17.85777842071533L9.82841,23.95784842071533C10.5302,24.65074842071533,11.2024,25.142248420715333,11.8539,25.42954842071533C12.5053,25.716748420715334,13.1864,25.76114842071533,13.903,25.56574842071533C14.6196,25.37034842071533,15.3895,24.86394842071533,16.2127,24.046648420715332C17.3498,22.921448420715333,17.8917,21.864248420715334,17.8355,20.87522842071533C17.7792,19.88618842071533,17.2166,18.86161842071533,16.1446,17.801518420715333L12.837,14.553088420715332C12.3188,14.040808420715333,12.0641,13.528518420715333,12.073,13.019198420715332C12.0819,12.509868420715332,12.304,12.036078420715333,12.7422,11.603749420715332C13.1805,11.171416420715332,13.6602,10.943404920715333,14.1873,10.925637418715333C14.7114,10.907869920715331,15.2326,11.156609420715332,15.7508,11.668894420715333L18.8689,14.730758420715333C19.8491,15.702028420715333,20.5568,16.619998420715334,20.9921,17.48466842071533C21.4274,18.34932842071533,21.5902,19.329488420715332,21.4777,20.422158420715334C21.377,21.35794842071533,21.075,22.264048420715334,20.5775,23.14344842071533C20.0771,24.02294842071533,19.3634,24.920248420715332,18.4366,25.84114842071533C17.3321,26.936748420715332,16.2779,27.774748420715333,15.2711,28.35814842071533C14.2643,28.941548420715332,13.293,29.267248420715333,12.3543,29.33534842071533C11.4156,29.403448420715332,10.4888,29.216848420715333,9.57078,28.77564842071533C8.65578,28.334448420715333,7.723,27.64744842071533,6.77838,26.70874842071533Z" fill="url(#master_svg1_40_03410)" fill-opacity="1"/></g><g><ellipse cx="10.53316879272461" cy="9.10746717453003" rx="2.2120065689086914" ry="2.2120065689086914" fill="url(#master_svg2_40_03072)" fill-opacity="1"/></g></g></g></svg>